<?xml version="1.0" encoding="UTF-8"?>
<svg xmlns="http://www.w3.org/2000/svg" xmlns:xlink="http://www.w3.org/1999/xlink" width="50px" height="50px" viewBox="0 0 30 30" version="1.1">
<g id="surface1">
<path style=" stroke:none;fill-rule:nonzero;fill:rgb(0%,0%,0%);fill-opacity:1;" d="M 15 2.8125 C 8.265625 2.8125 2.8125 8.265625 2.8125 15 C 2.8125 21.734375 8.265625 27.1875 15 27.1875 C 21.734375 27.1875 27.1875 21.734375 27.1875 15 C 27.1875 8.269531 21.734375 2.8125 15 2.8125 Z M 15 26.171875 C 11.566406 26.171875 8.492188 24.613281 6.4375 22.171875 C 7.484375 21.71875 10.085938 20.78125 11.730469 20.304688 C 11.859375 20.261719 11.882812 20.257812 11.882812 19.675781 C 11.882812 19.054688 11.8125 18.617188 11.660156 18.292969 C 11.453125 17.851562 11.207031 17.109375 11.121094 16.441406 C 10.875 16.15625 10.539062 15.589844 10.324219 14.511719 C 10.136719 13.5625 10.226562 13.21875 10.347656 12.894531 C 10.359375 12.859375 10.375 12.824219 10.382812 12.789062 C 10.429688 12.574219 10.363281 11.414062 10.203125 10.515625 C 10.089844 9.902344 10.230469 8.59375 11.078125 7.511719 C 11.613281 6.824219 12.640625 5.988281 14.476562 5.871094 L 15.503906 5.871094 C 17.375 5.988281 18.398438 6.824219 18.929688 7.511719 C 19.78125 8.59375 19.921875 9.902344 19.804688 10.515625 C 19.640625 11.414062 19.578125 12.566406 19.625 12.789062 C 19.628906 12.824219 19.644531 12.859375 19.65625 12.890625 C 19.78125 13.210938 19.875 13.558594 19.679688 14.507812 C 19.464844 15.585938 19.132812 16.148438 18.882812 16.433594 C 18.796875 17.101562 18.550781 17.839844 18.34375 18.285156 C 18.152344 18.691406 17.957031 19.171875 17.957031 19.652344 C 17.957031 20.230469 17.980469 20.238281 18.117188 20.277344 C 19.679688 20.742188 22.375 21.671875 23.566406 22.160156 C 21.515625 24.609375 18.4375 26.171875 15 26.171875 Z M 15 26.171875 "/>
</g>
</svg>
